HIERARCHY
ROOT Hips
{
	OFFSET 0.000000 0.000000 0.000000
	CHANNELS 6 Xposition Yposition Zposition Zrotation Yrotation Xrotation 
	JOINT LHipJoint
	{
		OFFSET 0.000000 0.000000 0.000000
		CHANNELS 3 Zrotation Yrotation Xrotation
		JOINT LeftUpLeg
		{
			OFFSET 1.363060 -1.794630 0.839290
			CHANNELS 3 Zrotation Yrotation Xrotation
			JOINT LeftLeg
			{
				OFFSET 2.448110 -6.726130 0.000000
				CHANNELS 3 Zrotation Yrotation Xrotation
				JOINT LeftFoot
				{
					OFFSET 2.562200 -7.039590 0.000000
					CHANNELS 3 Zrotation Yrotation Xrotation
					JOINT LeftToeBase
					{
						OFFSET 0.157640 -0.433110 2.322550
						CHANNELS 3 Zrotation Yrotation Xrotation
						End Site
						{
							OFFSET 0.000000 0.000000 0.000000
						}
					}
				}
			}
		}
	}
	JOINT RHipJoint
	{
		OFFSET 0.000000 0.000000 0.000000
		CHANNELS 3 Zrotation Yrotation Xrotation
		JOINT RightUpLeg
		{
			OFFSET -1.305520 -1.794630 0.839290
			CHANNELS 3 Zrotation Yrotation Xrotation
			JOINT RightLeg
			{
				OFFSET -2.542530 -6.985550 0.000000
				CHANNELS 3 Zrotation Yrotation Xrotation
				JOINT RightFoot
				{
					OFFSET -2.568260 -7.056230 0.000000
					CHANNELS 3 Zrotation Yrotation Xrotation
					JOINT RightToeBase
					{
						OFFSET -0.164730 -0.452590 2.363150
						CHANNELS 3 Zrotation Yrotation Xrotation
						End Site
						{
							OFFSET 0.000000 0.000000 0.000000
						}
					}
				}
			}
		}
	}
}
MOTION
Frames: 16
Frame Time: 0.008333
4.886480 15.407501 -6.621799 -168.998174 44.776704 -146.956023 -10.491782 -1.857059 -3.354687 -24.697386 9.254869 -73.325426 -2.214782 5.119930 55.134741 4.672667 16.471574 -26.703985 174.956500 0.000001 -7.285200 8.707015 -0.657399 -7.674851 2.801647 -22.835465 -32.546136 0.106798 -5.221612 64.699347 0.290511 14.354834 16.250856 5.624100 0.000000 -93.810200
4.980381 15.326392 -6.760095 -168.968599 44.575642 -147.592874 -10.507370 -1.870685 -3.659807 -24.698764 9.941562 -73.078248 -2.071828 5.333990 57.430203 4.611922 16.340905 -27.687825 174.624600 0.000000 -8.400800 8.843198 -0.644644 -7.631883 1.838878 -22.731279 -31.674509 -0.038226 -5.243564 65.699549 0.234538 15.086845 17.344343 6.200900 -0.000001 -93.048400
5.073341 15.250590 -6.894846 -169.055910 44.324828 -148.286643 -10.514959 -1.867026 -3.954662 -24.756928 10.507849 -72.734391 -1.929330 5.522809 59.655983 4.590661 16.333983 -28.826042 174.215400 -0.000001 -9.161700 8.981406 -0.622463 -7.584717 0.864396 -22.605122 -30.870161 -0.180122 -5.271954 66.695058 0.165975 15.694002 18.513759 6.775800 0.000000 -92.162400
5.165157 15.181662 -7.026037 -169.256942 44.013185 -149.024438 -10.517646 -1.849202 -4.229375 -24.846790 10.928794 -72.269938 -1.790772 5.678153 61.735564 4.606624 16.451879 -30.060488 173.740700 -0.000000 -9.569501 9.119245 -0.591532 -7.535661 -0.101058 -22.456043 -30.143265 -0.317868 -5.306819 67.682757 0.085871 16.135602 19.732380 7.317400 0.000001 -90.939100
5.255463 15.120658 -7.154086 -169.557015 43.633674 -149.788327 -10.519077 -1.821001 -4.476641 -24.945750 11.191855 -71.669626 -1.659630 5.794842 63.610863 4.654087 16.682890 -31.329326 173.216400 -0.000001 -9.629000 9.253996 -0.552991 -7.486422 -1.035629 -22.281504 -29.501198 -0.450696 -5.347486 68.657780 -0.004547 16.371635 20.969143 7.788400 0.000000 -89.254900
5.344024 15.068204 -7.279349 -169.938630 43.186491 -150.561166 -10.522472 -1.786214 -4.691306 -25.034128 11.297394 -70.930403 -1.539134 5.871136 65.243694 4.725028 17.005071 -32.574047 172.662100 -0.000000 -9.369600 9.383108 -0.508305 -7.437762 -1.917155 -22.076237 -28.951029 -0.578927 -5.393109 69.620115 -0.103372 16.364162 22.175294 8.143500 0.000000 -87.041400
5.430468 15.024345 -7.402484 -170.375632 42.676203 -151.322182 -10.530835 -1.748289 -4.870744 -25.097301 11.257283 -70.060045 -1.431635 5.908171 66.615780 4.810220 17.389337 -33.744929 172.100000 0.000000 -8.844801 9.503880 -0.459298 -7.389696 -2.723320 -21.833503 -28.499497 -0.703506 -5.442385 70.569721 -0.208720 16.080308 23.296005 8.336700 -0.000001 -84.437200
5.514296 14.988714 -7.524261 -170.837111 42.112018 -152.049523 -10.546772 -1.710162 -5.014110 -25.124979 11.092577 -69.077989 -1.338395 5.909691 67.726795 4.900432 17.803190 -34.804224 171.553700 0.000000 -8.130700 9.613624 -0.408241 -7.341122 -3.434001 -21.543414 -28.154868 -0.826862 -5.494233 71.514714 -0.318190 15.496616 24.260199 8.325000 -0.000001 -81.416901
5.595265 14.960667 -7.645343 -171.296803 41.507878 -152.725332 -10.571738 -1.673526 -5.122619 -25.112144 10.831119 -68.011620 -1.259768 5.881691 68.592968 4.987446 18.214278 -35.729651 171.044700 -0.000000 -7.321000 9.710293 -0.357281 -7.290180 -4.030771 -21.196754 -27.925475 -0.951959 -5.547286 72.462174 -0.429861 14.600933 25.000297 8.078900 0.000000 -78.120300
5.673018 14.939334 -7.766400 -171.727488 40.878097 -153.332560 -10.606676 -1.639349 -5.199216 -25.058178 10.505275 -66.894345 -1.195161 5.831480 69.243046 5.064738 18.593625 -36.513835 170.590300 -0.000000 -6.513700 9.792045 -0.308407 -7.234148 -4.498762 -20.784356 -27.819884 -1.081739 -5.599968 73.418199 -0.542347 13.395406 25.455953 7.587700 0.000000 -74.747700
5.747252 14.923735 -7.888016 -172.105908 40.236598 -153.857146 -10.651889 -1.607835 -5.248141 -24.966031 10.148928 -65.762550 -1.143421 5.767016 69.714260 5.127942 18.918137 -37.163311 170.202000 0.000000 -5.795200 9.857617 -0.263392 -7.169903 -4.827241 -20.298638 -27.845691 -1.218731 -5.650750 74.388512 -0.654610 11.899287 25.576722 6.863200 0.000000 -71.464100
5.817897 14.912984 -8.010438 -172.417026 39.596202 -154.290535 -10.706889 -1.578370 -5.274629 -24.841731 9.794997 -64.651829 -1.103224 5.696211 70.047858 5.174544 19.170686 -37.694177 169.885000 -0.000000 -5.222201 9.906556 -0.223177 -7.094033 -5.010349 -19.734295 -28.009149 -1.364294 -5.698017 75.374812 -0.766226 10.147614 25.330261 5.939900 0.000001 -68.460501
5.885057 14.906344 -8.133675 -172.654147 38.966815 -154.629509 -10.770638 -1.549960 -5.284349 -24.692767 9.472808 -63.593605 -1.073260 5.626127 70.284678 5.203780 19.341044 -38.128313 169.639400 0.000000 -4.813900 9.939272 -0.188047 -7.003569 -5.048339 -19.089873 -28.313650 -1.518457 -5.740559 76.376346 -0.876887 8.191013 24.698629 4.871000 0.000000 -65.812799
5.948908 14.903248 -8.257721 -172.813618 38.353750 -154.872632 -10.841952 -1.521434 -5.282747 -24.527722 9.206207 -62.613385 -1.052416 5.562340 70.460453 5.216027 19.424104 -38.488785 169.461400 0.000000 -4.550800 9.956565 -0.157589 -6.896094 -4.947114 -18.367413 -28.759719 -1.679524 -5.777356 77.387750 -0.986389 6.092094 23.680682 3.722701 -0.000000 -63.499201
6.009822 14.903296 -8.382104 -172.901464 37.757369 -155.024424 -10.918897 -1.491875 -5.274063 -24.353837 9.008239 -61.728855 -1.039460 5.508520 70.604531 5.212678 19.421011 -38.795814 169.344700 0.000001 -4.387100 9.960127 -0.130593 -6.769966 -4.717425 -17.572371 -29.343733 -1.844124 -5.807616 78.397663 -1.094961 3.917816 22.295390 2.565900 -0.000001 -61.507800
6.068230 14.906339 -8.506409 -172.926499 37.174379 -155.091994 -10.999717 -1.460585 -5.262150 -24.177000 8.885525 -60.947505 -1.033607 5.466553 70.736133 5.195083 19.334497 -39.064339 169.283600 0.000000 -4.255399 9.951591 -0.105261 -6.624801 -4.374684 -16.712969 -30.056166 -2.007278 -5.830536 79.388329 -1.203091 1.737757 20.584445 1.469500 0.000000 -59.759001
